<?xml version="1.0" encoding="UTF-8"?> <svg xmlns="http://www.w3.org/2000/svg" viewBox="0 0 322 163.5"><defs><style>.cls-1{fill:#fff;}.cls-2{fill:#3554a1;}.cls-3{fill:#f39200;}.cls-4{fill:#76b82a;}.cls-5{fill:#575756;}.cls-6{fill:#1d1d1b;}</style></defs><g id="Capa_2" data-name="Capa 2"><g id="Capa_1-2" data-name="Capa 1"><rect class="cls-1" width="322" height="163.5"></rect><path class="cls-2" d="M36.17,50.12H68.69s14.94.66,17.59,15.43c0,0,.67,3-1.16,3.81H53.26S39,69.2,36.17,52.44Z"></path><path class="cls-3" d="M67.82,118.32,51.57,90.15s-6.89-13.27,4.58-23c0,0,2.25-2.07,3.88-.9L76,93.89s7,12.45-6.12,23.26Z"></path><path class="cls-4" d="M107.84,60,91.21,88S83,100.45,69,95.18c0,0-2.9-1-2.68-3L82.56,64.85s7.44-12.18,23.28-6Z"></path><path class="cls-5" d="M118.89,72.79c.15,1.94,2.07,2.86,4.25,2.86a13.36,13.36,0,0,0,4.17-.61l.61,3.17a14.77,14.77,0,0,1-5.45,1c-5.12,0-8-3-8-7.71,0-3.82,2.37-8,7.61-8,4.87,0,6.72,3.79,6.72,7.52a11.46,11.46,0,0,1-.15,1.85Zm5.52-3.21c0-1.14-.49-3-2.65-3a3.07,3.07,0,0,0-2.9,3Z"></path><path class="cls-5" d="M131,58.05h12.7V61.9h-8v4.75h7.46v3.82h-7.46v8.36H131Z"></path><path class="cls-5" d="M146,56.94h4.68V78.83H146Z"></path><path class="cls-5" d="M168.68,71.12c0,5.52-3.92,8-8,8-4.4,0-7.79-2.9-7.79-7.77s3.2-8,8-8A7.33,7.33,0,0,1,168.68,71.12Zm-10.92.15c0,2.59,1.08,4.54,3.09,4.54,1.82,0,3-1.82,3-4.54,0-2.25-.87-4.53-3-4.53S157.76,69.06,157.76,71.27Z"></path><path class="cls-5" d="M173.86,63.75l1.2,6.17c.31,1.54.62,3.23.86,5H176c.31-1.73.74-3.45,1.11-4.93l1.61-6.2h3.7l1.51,6c.4,1.7.8,3.39,1.11,5.12h.06c.21-1.73.52-3.42.86-5.15l1.29-6h4.6L187.2,78.83h-4.4l-1.42-5.31c-.37-1.48-.65-2.8-1-4.68h-.06a32.94,32.94,0,0,1-1,4.68l-1.51,5.31h-4.4l-4.38-15.08Z"></path><path class="cls-5" d="M192.82,74.73a9.19,9.19,0,0,0,4,1.14c1.42,0,2-.5,2-1.27s-.46-1.14-2.22-1.72c-3.11-1-4.32-2.75-4.29-4.5,0-2.84,2.41-5,6.14-5a10.11,10.11,0,0,1,4.25.86l-.83,3.23a7.4,7.4,0,0,0-3.27-.86c-1.14,0-1.79.46-1.79,1.23s.59,1.08,2.44,1.73c2.87,1,4.07,2.43,4.1,4.65,0,2.81-2.22,4.91-6.54,4.91A10.74,10.74,0,0,1,192,78.09Z"></path><path class="cls-5" d="M213.25,78.83V74.05h-8.87V71L212,58.79h5.73V70.53h2.41v3.52h-2.41v4.78Zm0-8.3V66.1c0-1.21.07-2.44.16-3.73h-.13c-.64,1.29-1.17,2.46-1.84,3.73l-2.69,4.37v.06Z"></path><path class="cls-5" d="M226.85,58.05v8h7.74v-8h4.68V78.83h-4.68v-8.7h-7.74v8.7h-4.72V58.05Z"></path><path class="cls-5" d="M242.7,58.33A38,38,0,0,1,249,57.9c2.9,0,5,.55,6.35,1.66a6.07,6.07,0,0,1,2.22,4.81,6.61,6.61,0,0,1-1.91,4.93c-1.6,1.51-4,2.19-6.75,2.19a12.16,12.16,0,0,1-1.6-.09v7.43H242.7Zm4.65,9.43a7.34,7.34,0,0,0,1.57.12c2.5,0,4-1.26,4-3.39,0-1.91-1.33-3-3.67-3a7.58,7.58,0,0,0-1.94.19Z"></path><path class="cls-5" d="M275.19,78.24a13.32,13.32,0,0,1-5.34.93c-7.18,0-10.88-4.5-10.88-10.42,0-7.09,5.06-11,11.34-11a12.25,12.25,0,0,1,5.12.93l-.95,3.73a10.18,10.18,0,0,0-4-.77c-3.73,0-6.63,2.25-6.63,6.87,0,4.16,2.47,6.78,6.66,6.78a11.78,11.78,0,0,0,3.92-.68Z"></path><path class="cls-6" d="M116.09,93.71V88.36a.26.26,0,0,1,.26-.27h3.54c.13,0,.21.06.21.18v0c0,.13-.08.18-.21.18h-3.36v2.26h2.6q.21,0,.21.18v0c0,.13-.07.19-.21.19h-2.6v2.41H120c.13,0,.21.06.21.18v0c0,.13-.08.19-.21.19h-3.62A.25.25,0,0,1,116.09,93.71Z"></path><path class="cls-6" d="M121.13,93.8V89.69a.29.29,0,0,1,.15,0c.15,0,.28.08.28.44v.39a1.74,1.74,0,0,1,1.55-.9c1.15,0,1.73.77,1.73,1.93V93.8c0,.17-.08.21-.19.21h-.06c-.11,0-.19,0-.19-.21V91.53c0-.94-.46-1.53-1.31-1.53a1.6,1.6,0,0,0-1.52,1v2.8c0,.17-.08.21-.19.21h-.06C121.21,94,121.13,94,121.13,93.8Z"></path><path class="cls-6" d="M125.76,92.89c0-1,.95-1.37,3.12-1.41H129v-.22A1.18,1.18,0,0,0,127.65,90a1.55,1.55,0,0,0-1.47.82.26.26,0,0,1-.24-.26.77.77,0,0,1,.24-.42,2.09,2.09,0,0,1,1.5-.55,1.56,1.56,0,0,1,1.72,1.67V94a.25.25,0,0,1-.16,0c-.14,0-.27-.08-.27-.44v-.44a1.87,1.87,0,0,1-1.71.94C126.34,94.07,125.76,93.61,125.76,92.89Zm3.21-.64v-.42h-.12c-1.87,0-2.64.33-2.64,1.06,0,.51.42.82,1.08.82A1.57,1.57,0,0,0,129,92.25Z"></path><path class="cls-6" d="M131,93.11v.69c0,.16-.07.21-.18.21h0c-.12,0-.2-.05-.2-.21v-6a.28.28,0,0,1,.14,0c.16,0,.29.08.29.43v2.32a1.92,1.92,0,0,1,1.71-1,2.26,2.26,0,0,1,0,4.5A1.81,1.81,0,0,1,131,93.11Zm3.33-1.29a1.71,1.71,0,0,0-3.33-.68v1a1.59,1.59,0,0,0,1.65,1.55A1.69,1.69,0,0,0,134.37,91.82Z"></path><path class="cls-6" d="M135.82,93.8v-6a.28.28,0,0,1,.14,0c.16,0,.29.08.29.43V93.8c0,.16-.08.21-.2.21h0C135.89,94,135.82,94,135.82,93.8Z"></path><path class="cls-6" d="M137.51,88.21c0-.2.1-.3.31-.3s.29.1.29.3-.1.3-.31.3A.26.26,0,0,1,137.51,88.21Zm.08,5.59V89.86c0-.17.07-.21.19-.21h.05c.12,0,.2,0,.2.21V93.8c0,.17-.08.21-.2.21h-.05C137.66,94,137.59,94,137.59,93.8Z"></path><path class="cls-6" d="M139.32,93.8V89.69a.29.29,0,0,1,.15,0c.15,0,.28.08.28.44v.39a1.74,1.74,0,0,1,1.55-.9c1.14,0,1.73.77,1.73,1.93V93.8c0,.17-.08.21-.19.21h-.06c-.11,0-.19,0-.19-.21V91.53c0-.94-.46-1.53-1.31-1.53a1.6,1.6,0,0,0-1.52,1v2.8c0,.17-.08.21-.19.21h-.06C139.4,94,139.32,94,139.32,93.8Z"></path><path class="cls-6" d="M143.62,94.73c0-.66.67-1.12,1.47-1.26a.51.51,0,0,1-.33-.46.53.53,0,0,1,.25-.44,1.47,1.47,0,0,1-1.07-1.41,1.62,1.62,0,0,1,1.71-1.58,1.84,1.84,0,0,1,1.07.34l.4-.54c.24-.38.56-.13.55,0l-.7.77a1.41,1.41,0,0,1,.39,1,1.62,1.62,0,0,1-1.73,1.55l-.29,0a.33.33,0,0,0-.16.29c0,.33.47.38,1.22.55s1.38.46,1.38,1.15-.8,1.26-2.16,1.26S143.62,95.51,143.62,94.73Zm3.72-.07c0-.47-.52-.67-1.07-.79-.2-.06-.41-.09-.61-.15-.85.06-1.62.44-1.62,1s.56.81,1.59.81S147.34,95.23,147.34,94.66Zm-.44-3.52a1.26,1.26,0,1,0-1.26,1.19A1.17,1.17,0,0,0,146.9,91.14Z"></path><path class="cls-6" d="M149.66,91.83a2.09,2.09,0,0,1,2.08-2.25,1.81,1.81,0,0,1,1.67.93V87.85a.34.34,0,0,1,.15,0c.15,0,.29.08.29.43V93.8c0,.16-.08.21-.2.21h-.05c-.11,0-.19-.05-.19-.21v-.69a1.83,1.83,0,0,1-1.7,1A2.08,2.08,0,0,1,149.66,91.83Zm3.75.31v-1A1.66,1.66,0,0,0,151.77,90a1.87,1.87,0,0,0,0,3.72A1.59,1.59,0,0,0,153.41,92.14Z"></path><path class="cls-6" d="M155.77,95.62l.77-1.87a.25.25,0,0,1-.28-.18l-1.66-3.79c0-.1.35-.31.54.15l1.51,3.56L158,90c.18-.5.54-.27.54-.19l-2.22,5.68c-.08.24-.19.29-.31.29S155.76,95.65,155.77,95.62Z"></path><path class="cls-6" d="M159.27,93.8V89.69a.34.34,0,0,1,.15,0c.16,0,.28.08.28.44v.39a1.74,1.74,0,0,1,1.55-.9c1.15,0,1.73.77,1.73,1.93V93.8c0,.17-.08.21-.19.21h0c-.11,0-.2,0-.2-.21V91.53c0-.94-.46-1.53-1.31-1.53a1.61,1.61,0,0,0-1.52,1v2.8c0,.17-.08.21-.19.21h-.05C159.36,94,159.27,94,159.27,93.8Z"></path><path class="cls-6" d="M163.91,92.89c0-1,1-1.37,3.11-1.41h.09v-.22A1.18,1.18,0,0,0,165.79,90a1.53,1.53,0,0,0-1.46.82.27.27,0,0,1-.25-.26.74.74,0,0,1,.25-.42,2,2,0,0,1,1.49-.55,1.56,1.56,0,0,1,1.72,1.67V94a.24.24,0,0,1-.15,0c-.15,0-.28-.08-.28-.44v-.44a1.87,1.87,0,0,1-1.71.94C164.48,94.07,163.91,93.61,163.91,92.89Zm3.2-.64v-.42H167c-1.88,0-2.65.33-2.65,1.06,0,.51.42.82,1.09.82A1.56,1.56,0,0,0,167.11,92.25Z"></path><path class="cls-6" d="M168.76,93.8V89.69a.29.29,0,0,1,.15,0c.15,0,.28.08.28.44v.37a1.63,1.63,0,0,1,1.44-.88,1.46,1.46,0,0,1,1.48,1,1.68,1.68,0,0,1,1.57-1c1.07,0,1.66.67,1.66,1.86V93.8c0,.17-.08.21-.19.21h-.06c-.11,0-.19,0-.19-.21V91.47c0-1-.44-1.47-1.25-1.47a1.47,1.47,0,0,0-1.38,1v2.8c0,.17-.08.21-.19.21H172c-.11,0-.19,0-.19-.21V91.37c0-.86-.42-1.37-1.25-1.37a1.51,1.51,0,0,0-1.38,1V93.8c0,.17-.08.21-.19.21H169C168.84,94,168.76,94,168.76,93.8Z"></path><path class="cls-6" d="M176.52,88.21c0-.2.1-.3.31-.3s.29.1.29.3-.1.3-.31.3A.26.26,0,0,1,176.52,88.21Zm.08,5.59V89.86c0-.17.07-.21.19-.21h.05c.11,0,.2,0,.2.21V93.8c0,.17-.09.21-.2.21h-.05C176.67,94,176.6,94,176.6,93.8Z"></path><path class="cls-6" d="M178,91.83a2.15,2.15,0,0,1,2.19-2.25,2.08,2.08,0,0,1,1.5.56,1.08,1.08,0,0,1,.32.61c0,.2-.26.24-.28.22a1.52,1.52,0,0,0-1.54-1,1.86,1.86,0,0,0,0,3.72,1.52,1.52,0,0,0,1.54-1s.28,0,.28.22a1.06,1.06,0,0,1-.34.62,2,2,0,0,1-1.48.55A2.15,2.15,0,0,1,178,91.83Z"></path><path class="cls-6" d="M184.3,92.89c0-1,.95-1.37,3.12-1.41h.09v-.22A1.19,1.19,0,0,0,186.19,90a1.55,1.55,0,0,0-1.47.82.27.27,0,0,1-.25-.26.74.74,0,0,1,.25-.42,2,2,0,0,1,1.49-.55,1.56,1.56,0,0,1,1.72,1.67V94a.24.24,0,0,1-.15,0c-.15,0-.27-.08-.27-.44v-.44a1.89,1.89,0,0,1-1.72.94C184.87,94.07,184.3,93.61,184.3,92.89Zm3.21-.64v-.42h-.12c-1.88,0-2.64.33-2.64,1.06,0,.51.42.82,1.08.82A1.57,1.57,0,0,0,187.51,92.25Z"></path><path class="cls-6" d="M189.15,93.8V89.69a.34.34,0,0,1,.15,0c.15,0,.28.08.28.44v.39a1.74,1.74,0,0,1,1.55-.9c1.15,0,1.73.77,1.73,1.93V93.8c0,.17-.08.21-.19.21h-.06c-.11,0-.19,0-.19-.21V91.53c0-.94-.46-1.53-1.31-1.53a1.6,1.6,0,0,0-1.52,1v2.8c0,.17-.08.21-.19.21h-.06C189.23,94,189.15,94,189.15,93.8Z"></path><path class="cls-6" d="M193.79,91.83a2.09,2.09,0,0,1,2.07-2.25,1.84,1.84,0,0,1,1.68.93V87.85a.28.28,0,0,1,.14,0c.16,0,.3.08.3.43V93.8c0,.16-.09.21-.2.21h-.05c-.12,0-.19-.05-.19-.21v-.69a1.86,1.86,0,0,1-1.71,1A2.07,2.07,0,0,1,193.79,91.83Zm3.75.31v-1A1.67,1.67,0,0,0,195.89,90a1.87,1.87,0,0,0,0,3.72A1.6,1.6,0,0,0,197.54,92.14Z"></path><path class="cls-6" d="M201,93.8V88.27a.19.19,0,0,1,.2-.21h.06c.13,0,.19.08.19.21V93.8c0,.15-.06.21-.19.21h-.06C201.08,94,201,94,201,93.8Z"></path><path class="cls-6" d="M202.9,93.8V89.69a.28.28,0,0,1,.14,0c.16,0,.29.08.29.44v.39a1.74,1.74,0,0,1,1.55-.9c1.14,0,1.73.77,1.73,1.93V93.8c0,.17-.09.21-.2.21h0c-.11,0-.19,0-.19-.21V91.53c0-.94-.47-1.53-1.31-1.53a1.6,1.6,0,0,0-1.52,1v2.8c0,.17-.09.21-.2.21h0C203,94,202.9,94,202.9,93.8Z"></path><path class="cls-6" d="M208.09,92.74V90.07h-.53c-.17,0-.21-.07-.21-.18v0c0-.11,0-.17.21-.17h.53v-.84c0-.17.08-.22.19-.22h.05c.11,0,.19,0,.19.22v.84h1.24c.17,0,.22.06.22.17v0c0,.11,0,.18-.22.18h-1.24v2.62c0,.71.2,1,.71,1a.82.82,0,0,0,.71-.37s.14,0,.14.22a.37.37,0,0,1-.14.27,1,1,0,0,1-.72.26C208.45,94.08,208.09,93.65,208.09,92.74Z"></path><path class="cls-6" d="M212.76,93.69a1.57,1.57,0,0,0,1.54-.87.25.25,0,0,1,.25.25.8.8,0,0,1-.27.47,2.2,2.2,0,0,1-1.52.54,2.13,2.13,0,0,1-2.21-2.24,2.15,2.15,0,0,1,2.15-2.26,1.94,1.94,0,0,1,2,2.11v0c0,.13-.05.16-.19.16H211A1.73,1.73,0,0,0,212.76,93.69Zm1.47-2.17A1.5,1.5,0,0,0,212.7,90,1.7,1.7,0,0,0,211,91.52Z"></path><path class="cls-6" d="M215.67,93.8v-6a.29.29,0,0,1,.15,0c.15,0,.29.08.29.43V93.8c0,.16-.08.21-.2.21h0C215.74,94,215.67,94,215.67,93.8Z"></path><path class="cls-6" d="M217.45,93.8v-6a.28.28,0,0,1,.14,0c.16,0,.29.08.29.43V93.8c0,.16-.08.21-.2.21h0C217.52,94,217.45,94,217.45,93.8Z"></path><path class="cls-6" d="M219.14,88.21c0-.2.1-.3.31-.3s.29.1.29.3-.1.3-.31.3A.26.26,0,0,1,219.14,88.21Zm.08,5.59V89.86c0-.17.07-.21.19-.21h.05c.12,0,.2,0,.2.21V93.8c0,.17-.08.21-.2.21h-.05C219.29,94,219.22,94,219.22,93.8Z"></path><path class="cls-6" d="M220.32,94.73c0-.66.68-1.12,1.48-1.26a.51.51,0,0,1-.33-.46.53.53,0,0,1,.25-.44,1.48,1.48,0,0,1-1.08-1.41,1.63,1.63,0,0,1,1.71-1.58,1.87,1.87,0,0,1,1.08.34l.4-.54c.24-.38.56-.13.55,0l-.71.77a1.42,1.42,0,0,1,.4,1,1.62,1.62,0,0,1-1.73,1.55l-.3,0a.34.34,0,0,0-.15.29c0,.33.46.38,1.22.55s1.38.46,1.38,1.15-.81,1.26-2.16,1.26S220.32,95.51,220.32,94.73Zm3.73-.07c0-.47-.52-.67-1.08-.79-.2-.06-.41-.09-.61-.15-.84.06-1.61.44-1.61,1s.56.81,1.59.81S224.05,95.23,224.05,94.66Zm-.44-3.52a1.26,1.26,0,1,0-1.27,1.19A1.18,1.18,0,0,0,223.61,91.14Z"></path><path class="cls-6" d="M227,93.69a1.57,1.57,0,0,0,1.54-.87.25.25,0,0,1,.25.25.8.8,0,0,1-.27.47,2.2,2.2,0,0,1-1.52.54,2.13,2.13,0,0,1-2.21-2.24,2.16,2.16,0,0,1,2.15-2.26,1.94,1.94,0,0,1,2,2.11v0c0,.13,0,.16-.19.16h-3.51A1.73,1.73,0,0,0,227,93.69Zm1.47-2.17A1.5,1.5,0,0,0,226.91,90a1.7,1.7,0,0,0-1.69,1.55Z"></path><path class="cls-6" d="M229.84,93.8V89.69a.28.28,0,0,1,.14,0c.16,0,.28.08.28.44v.39a1.75,1.75,0,0,1,1.55-.9c1.15,0,1.73.77,1.73,1.93V93.8c0,.17-.08.21-.19.21h0c-.11,0-.19,0-.19-.21V91.53c0-.94-.47-1.53-1.32-1.53a1.61,1.61,0,0,0-1.52,1v2.8c0,.17-.08.21-.19.21H230C229.92,94,229.84,94,229.84,93.8Z"></path><path class="cls-6" d="M235,92.74V90.07h-.52c-.17,0-.21-.07-.21-.18v0c0-.11,0-.17.21-.17H235v-.84c0-.17.09-.22.2-.22h.05c.11,0,.18,0,.18.22v.84h1.25c.16,0,.22.06.22.17v0c0,.11-.06.18-.22.18h-1.25v2.62c0,.71.21,1,.72,1a.79.79,0,0,0,.7-.37s.15,0,.15.22a.39.39,0,0,1-.15.27.93.93,0,0,1-.72.26C235.39,94.08,235,93.65,235,92.74Z"></path><path class="cls-6" d="M240.1,93.86,239,89.77s.39-.35.52.2l.88,3.61,1-3c0-.13.11-.19.34-.19s.29.06.34.19l1,3L244,90c.13-.55.51-.24.51-.2l-1.07,4.09c0,.11-.08.16-.32.16s-.26,0-.3-.16l-1.06-3.09-1.09,3.09c0,.11-.08.16-.3.16S240.12,94,240.1,93.86Z"></path><path class="cls-6" d="M245.14,91.83a2.2,2.2,0,1,1,2.2,2.25A2.15,2.15,0,0,1,245.14,91.83Zm4,0a1.76,1.76,0,1,0-1.76,1.85A1.78,1.78,0,0,0,249.1,91.84Z"></path><path class="cls-6" d="M250.5,93.8V89.69a.29.29,0,0,1,.15,0c.15,0,.28.08.28.44v.54a1.17,1.17,0,0,1,1.18-1c.35,0,.61.15.61.37a.23.23,0,0,1-.12.23.81.81,0,0,0-.52-.18c-.78,0-1.14.77-1.14,1.94V93.8c0,.16-.08.21-.19.21h-.05C250.58,94,250.5,94,250.5,93.8Z"></path><path class="cls-6" d="M253.49,93.8v-6a.28.28,0,0,1,.14,0c.16,0,.29.08.29.43v3.42l2-1.84c.37-.36.54,0,.51,0l-2,1.84,2.26,2.08c0,.1-.15.43-.52.06l-2.23-2.08v2c0,.17-.08.21-.19.21h0C253.57,94,253.49,94,253.49,93.8Z"></path><path class="cls-6" d="M257.78,93.8V90.07h-.72c-.16,0-.21-.07-.21-.18v0c0-.11,0-.17.21-.17h.72v-.47c0-1,.43-1.49,1.2-1.49a1.07,1.07,0,0,1,.73.23.37.37,0,0,1,.1.23c0,.15-.11.22-.13.21a1,1,0,0,0-.7-.29c-.51,0-.78.35-.78,1.14v.44h1c.16,0,.22.06.22.17v0c0,.11-.06.18-.22.18h-1V93.8c0,.16-.07.21-.19.21h0C257.86,94,257.78,94,257.78,93.8Zm2.49,0v-6a.29.29,0,0,1,.15,0c.15,0,.29.08.29.43V93.8c0,.16-.08.21-.19.21h0C260.35,94,260.27,94,260.27,93.8Z"></path><path class="cls-6" d="M261.72,91.83a2.2,2.2,0,1,1,2.2,2.25A2.15,2.15,0,0,1,261.72,91.83Zm4,0a1.77,1.77,0,1,0-1.76,1.85A1.78,1.78,0,0,0,265.68,91.84Z"></path><path class="cls-6" d="M267.79,93.86l-1.08-4.09s.39-.35.52.2l.89,3.61,1-3c0-.13.11-.19.34-.19s.29.06.34.19l1,3,.87-3.61c.13-.55.51-.24.51-.2l-1.06,4.09c0,.11-.08.16-.33.16s-.26,0-.3-.16l-1.06-3.09-1.08,3.09c0,.11-.08.16-.3.16S267.82,94,267.79,93.86Z"></path><path class="cls-6" d="M273,93.57c-.16-.15-.21-.26-.21-.35S273,93,273,93a1.71,1.71,0,0,0,1.52.73c.79,0,1.24-.35,1.24-.84s-.53-.7-1.34-.87-1.53-.32-1.53-1.17.65-1.25,1.62-1.25a1.91,1.91,0,0,1,1.39.48.51.51,0,0,1,.16.32.25.25,0,0,1-.23.23,1.5,1.5,0,0,0-1.32-.66c-.75,0-1.2.35-1.2.82s.51.67,1.3.85,1.58.33,1.58,1.19-.65,1.27-1.68,1.27A2.09,2.09,0,0,1,273,93.57Z"></path><path class="cls-6" d="M116,101c0-.2.1-.3.31-.3s.29.1.29.3a.28.28,0,0,1-.31.31C116.06,101.26,116,101.15,116,101Zm.08,5.6v-4c0-.16.08-.21.19-.21h0c.12,0,.2,0,.2.21v4c0,.16-.08.21-.2.21h0C116.12,106.76,116,106.71,116,106.55Z"></path><path class="cls-6" d="M117.77,106.55v-4.11a.22.22,0,0,1,.15,0c.15,0,.28.09.28.44v.39a1.73,1.73,0,0,1,1.55-.89c1.15,0,1.73.77,1.73,1.92v2.3c0,.16-.08.21-.19.21h-.06c-.11,0-.19-.05-.19-.21v-2.27c0-1-.46-1.54-1.31-1.54a1.6,1.6,0,0,0-1.52,1v2.81c0,.16-.08.21-.19.21H118C117.85,106.76,117.77,106.71,117.77,106.55Z"></path><path class="cls-6" d="M124.56,105.48v-2.67H124c-.16,0-.2-.06-.2-.17v0c0-.11,0-.17.2-.17h.53v-.84c0-.16.09-.22.19-.22h.06c.11,0,.18.06.18.22v.84h1.25c.16,0,.22.06.22.17v0c0,.11-.06.17-.22.17H125v2.63c0,.71.21,1,.72,1a.8.8,0,0,0,.7-.38s.15.05.15.22a.39.39,0,0,1-.15.28,1,1,0,0,1-.72.25C124.93,106.82,124.56,106.39,124.56,105.48Z"></path><path class="cls-6" d="M127.32,106.55v-6a.22.22,0,0,1,.15,0c.15,0,.29.09.29.43v2.29a1.63,1.63,0,0,1,1.53-.94c1.16,0,1.74.77,1.74,1.92v2.3c0,.16-.08.21-.19.21h-.06c-.11,0-.19-.05-.19-.21v-2.27c0-1-.47-1.54-1.33-1.54a1.44,1.44,0,0,0-1.5,1.51v2.3c0,.16-.08.21-.19.21h-.06C127.4,106.76,127.32,106.71,127.32,106.55Z"></path><path class="cls-6" d="M134.16,106.44a1.58,1.58,0,0,0,1.54-.88.27.27,0,0,1,.25.26.81.81,0,0,1-.27.46,2.15,2.15,0,0,1-1.52.54,2.13,2.13,0,0,1-2.21-2.23,2.16,2.16,0,0,1,2.15-2.26,1.93,1.93,0,0,1,2,2.1v0c0,.13-.05.15-.19.15h-3.51A1.74,1.74,0,0,0,134.16,106.44Zm1.47-2.18a1.5,1.5,0,0,0-1.53-1.55,1.71,1.71,0,0,0-1.69,1.55Z"></path><path class="cls-6" d="M139,106.55v-3.74h-.72c-.16,0-.21-.06-.21-.17v0c0-.11,0-.17.21-.17H139V102c0-1,.43-1.5,1.19-1.5a1,1,0,0,1,.73.24.3.3,0,0,1,.1.23c0,.14-.11.22-.13.21a.91.91,0,0,0-.7-.29c-.51,0-.77.34-.77,1.13v.44h1c.16,0,.21.06.21.17v0c0,.11-.05.17-.21.17h-1v3.74c0,.15-.08.21-.19.21h0C139.09,106.76,139,106.7,139,106.55Z"></path><path class="cls-6" d="M141.42,104.9v-2.3c0-.16.08-.21.19-.21h.06c.11,0,.19,0,.19.21v2.27c0,.95.46,1.54,1.31,1.54a1.6,1.6,0,0,0,1.52-1V102.6c0-.16.08-.21.19-.21h.06c.11,0,.19,0,.19.21v4.11a.22.22,0,0,1-.15.05c-.15,0-.28-.08-.28-.44v-.39a1.75,1.75,0,0,1-1.56.89C142,106.82,141.42,106.06,141.42,104.9Z"></path><path class="cls-6" d="M146.65,105.48v-2.67h-.53c-.16,0-.21-.06-.21-.17v0c0-.11.05-.17.21-.17h.53v-.84c0-.16.08-.22.19-.22h0c.11,0,.19.06.19.22v.84h1.24c.17,0,.22.06.22.17v0c0,.11,0,.17-.22.17h-1.24v2.63c0,.71.21,1,.72,1a.82.82,0,0,0,.7-.38s.14.05.14.22a.37.37,0,0,1-.14.28,1,1,0,0,1-.72.25C147,106.82,146.65,106.39,146.65,105.48Z"></path><path class="cls-6" d="M149.37,104.9v-2.3c0-.16.08-.21.19-.21h.06c.1,0,.19,0,.19.21v2.27c0,.95.46,1.54,1.31,1.54a1.6,1.6,0,0,0,1.52-1V102.6c0-.16.08-.21.19-.21h.06c.11,0,.19,0,.19.21v4.11a.26.26,0,0,1-.16.05c-.14,0-.27-.08-.27-.44v-.39a1.75,1.75,0,0,1-1.56.89C150,106.82,149.37,106.06,149.37,104.9Z"></path><path class="cls-6" d="M154.33,106.55v-4.11a.2.2,0,0,1,.15,0c.15,0,.28.09.28.44v.55a1.17,1.17,0,0,1,1.18-1c.35,0,.61.15.61.36s-.11.24-.12.23a.81.81,0,0,0-.52-.17c-.78,0-1.14.76-1.14,1.93v1.87c0,.15-.08.21-.19.21h-.05A.18.18,0,0,1,154.33,106.55Z"></path><path class="cls-6" d="M159.23,106.44a1.58,1.58,0,0,0,1.54-.88.27.27,0,0,1,.25.26.81.81,0,0,1-.27.46,2.15,2.15,0,0,1-1.52.54,2.13,2.13,0,0,1-2.21-2.23,2.16,2.16,0,0,1,2.15-2.26,1.93,1.93,0,0,1,2,2.1v0c0,.13-.05.15-.19.15h-3.51A1.74,1.74,0,0,0,159.23,106.44Zm1.47-2.18a1.5,1.5,0,0,0-1.53-1.55,1.71,1.71,0,0,0-1.69,1.55Z"></path><path class="cls-6" d="M163.79,106.46v-5.35a.25.25,0,0,1,.26-.27h3.54c.13,0,.21.06.21.18v0c0,.13-.08.19-.21.19h-3.35v2.26h2.59q.21,0,.21.18v0a.18.18,0,0,1-.21.2h-2.59v2.41h3.43c.14,0,.21.05.21.17v.05c0,.13-.07.19-.21.19h-3.62A.26.26,0,0,1,163.79,106.46Z"></path><path class="cls-6" d="M168.8,104.9v-2.3c0-.16.08-.21.19-.21h0c.11,0,.19,0,.19.21v2.27c0,.95.47,1.54,1.31,1.54a1.63,1.63,0,0,0,1.53-1V102.6c0-.16.08-.21.19-.21h.05c.11,0,.19,0,.19.21v4.11a.22.22,0,0,1-.15.05c-.15,0-.27-.08-.27-.44v-.39a1.76,1.76,0,0,1-1.56.89C169.38,106.82,168.8,106.06,168.8,104.9Z"></path><path class="cls-6" d="M173.76,106.55v-4.11a.18.18,0,0,1,.14,0c.16,0,.29.09.29.44v.55a1.17,1.17,0,0,1,1.18-1c.35,0,.61.15.61.36s-.11.24-.13.23a.81.81,0,0,0-.52-.17c-.77,0-1.14.76-1.14,1.93v1.87c0,.15-.08.21-.19.21h0A.18.18,0,0,1,173.76,106.55Z"></path><path class="cls-6" d="M176.45,104.57a2.2,2.2,0,1,1,2.21,2.25A2.15,2.15,0,0,1,176.45,104.57Zm4,0a1.76,1.76,0,1,0-1.75,1.85A1.75,1.75,0,0,0,180.41,104.59Z"></path><path class="cls-6" d="M181.9,106.55V101a.18.18,0,0,1,.2-.21h.06c.13,0,.19.07.19.21v2.55h3.78V101c0-.14.07-.21.19-.21h.07a.18.18,0,0,1,.2.21v5.53a.18.18,0,0,1-.2.21h-.07c-.12,0-.19-.07-.19-.21V104h-3.78v2.56c0,.14-.06.21-.19.21h-.06A.18.18,0,0,1,181.9,106.55Z"></path><path class="cls-6" d="M188,106.55v-5.44a.26.26,0,0,1,.27-.27h1.51c1.39,0,2.16.64,2.16,1.76s-.75,1.8-2.21,1.8h-1.28v2.15a.18.18,0,0,1-.19.21h-.07C188.08,106.76,188,106.69,188,106.55Zm1.77-2.55c1.13,0,1.7-.49,1.7-1.38s-.57-1.37-1.69-1.37h-1.33V104Z"></path><path class="cls-6" d="M192.7,103.8a2.86,2.86,0,0,1,2.93-3,2.57,2.57,0,0,1,1.88.69,1,1,0,0,1,.31.55.28.28,0,0,1-.26.28,2.11,2.11,0,0,0-1.95-1.13,2.65,2.65,0,0,0,0,5.29,2,2,0,0,0,2-1.27.29.29,0,0,1,.3.27,1.27,1.27,0,0,1-.4.7,2.7,2.7,0,0,1-1.9.69A2.84,2.84,0,0,1,192.7,103.8Z"></path><path class="cls-6" d="M202.39,106.44a1.58,1.58,0,0,0,1.54-.88.27.27,0,0,1,.25.26.81.81,0,0,1-.27.46,2.15,2.15,0,0,1-1.52.54,2.13,2.13,0,0,1-2.21-2.23,2.16,2.16,0,0,1,2.15-2.26,1.93,1.93,0,0,1,2,2.1v0c0,.13-.05.15-.19.15h-3.51A1.74,1.74,0,0,0,202.39,106.44Zm1.47-2.18a1.5,1.5,0,0,0-1.53-1.55,1.71,1.71,0,0,0-1.69,1.55Z"></path><path class="cls-6" d="M205,104.57a2.15,2.15,0,0,1,2.2-2.24,2,2,0,0,1,1.49.56,1,1,0,0,1,.33.61c0,.2-.26.23-.28.21a1.53,1.53,0,0,0-1.54-1,1.87,1.87,0,0,0,0,3.73,1.52,1.52,0,0,0,1.54-1s.28,0,.28.22a1,1,0,0,1-.35.61,2,2,0,0,1-1.47.55A2.15,2.15,0,0,1,205,104.57Z"></path><path class="cls-6" d="M209.62,104.57a2.2,2.2,0,1,1,2.21,2.25A2.16,2.16,0,0,1,209.62,104.57Zm4,0a1.77,1.77,0,1,0-1.76,1.85A1.76,1.76,0,0,0,213.59,104.59Z"></path><path class="cls-6" d="M214.85,106.32a.55.55,0,0,1-.21-.36c0-.18.22-.24.24-.23a1.68,1.68,0,0,0,1.52.73c.78,0,1.24-.36,1.24-.84s-.54-.7-1.34-.88-1.53-.31-1.53-1.16.65-1.25,1.61-1.25a2,2,0,0,1,1.39.47.53.53,0,0,1,.17.32c0,.18-.22.26-.24.23a1.52,1.52,0,0,0-1.32-.66c-.75,0-1.19.35-1.19.82s.51.68,1.29.85,1.59.34,1.59,1.19-.65,1.27-1.69,1.27A2.15,2.15,0,0,1,214.85,106.32Z"></path><path class="cls-6" d="M219.68,108.37l.77-1.88c-.16,0-.22,0-.27-.17l-1.66-3.8c0-.1.34-.31.54.16l1.51,3.56,1.34-3.54c.18-.5.53-.26.53-.19l-2.22,5.69c-.08.23-.19.29-.31.29A.27.27,0,0,1,219.68,108.37Z"></path><path class="cls-6" d="M223.05,106.32a.55.55,0,0,1-.21-.36c0-.18.22-.24.24-.23a1.69,1.69,0,0,0,1.52.73c.78,0,1.24-.36,1.24-.84s-.54-.7-1.34-.88-1.53-.31-1.53-1.16.65-1.25,1.61-1.25a2,2,0,0,1,1.4.47.51.51,0,0,1,.16.32c0,.18-.22.26-.24.23a1.51,1.51,0,0,0-1.32-.66c-.74,0-1.19.35-1.19.82s.51.68,1.29.85,1.59.34,1.59,1.19-.65,1.27-1.69,1.27A2.17,2.17,0,0,1,223.05,106.32Z"></path><path class="cls-6" d="M227.49,105.48v-2.67H227c-.17,0-.21-.06-.21-.17v0c0-.11,0-.17.21-.17h.53v-.84c0-.16.08-.22.19-.22h0c.11,0,.18.06.18.22v.84h1.25c.17,0,.22.06.22.17v0c0,.11,0,.17-.22.17h-1.25v2.63c0,.71.21,1,.72,1a.83.83,0,0,0,.71-.38s.14.05.14.22a.41.41,0,0,1-.14.28,1,1,0,0,1-.72.25C227.85,106.82,227.49,106.39,227.49,105.48Z"></path><path class="cls-6" d="M232.16,106.44a1.58,1.58,0,0,0,1.54-.88.27.27,0,0,1,.25.26.81.81,0,0,1-.27.46,2.17,2.17,0,0,1-1.52.54,2.13,2.13,0,0,1-2.21-2.23,2.15,2.15,0,0,1,2.15-2.26,1.93,1.93,0,0,1,2,2.1v0c0,.13-.06.15-.19.15h-3.51A1.74,1.74,0,0,0,232.16,106.44Zm1.46-2.18a1.48,1.48,0,0,0-1.52-1.55,1.71,1.71,0,0,0-1.69,1.55Z"></path><path class="cls-6" d="M235,106.55v-4.11a.22.22,0,0,1,.15,0c.15,0,.28.09.28.44v.37a1.64,1.64,0,0,1,1.44-.87,1.46,1.46,0,0,1,1.49,1,1.66,1.66,0,0,1,1.56-1c1.07,0,1.66.67,1.66,1.86v2.36c0,.16-.08.21-.19.21h-.06c-.1,0-.19-.05-.19-.21v-2.33c0-1-.43-1.48-1.24-1.48a1.47,1.47,0,0,0-1.39,1v2.81c0,.16-.08.21-.19.21h-.06c-.1,0-.19-.05-.19-.21v-2.43c0-.86-.42-1.38-1.24-1.38a1.52,1.52,0,0,0-1.39,1v2.82c0,.16-.08.21-.19.21h-.06C235.11,106.76,235,106.71,235,106.55Z"></path></g></g></svg> 