<?xml version="1.0" encoding="utf-8"?>
<!-- Generator: Adobe Illustrator 26.0.1, SVG Export Plug-In . SVG Version: 6.00 Build 0)  -->
<svg version="1.1" id="Ebene_1" xmlns="http://www.w3.org/2000/svg" xmlns:xlink="http://www.w3.org/1999/xlink" x="0px" y="0px"
	 viewBox="0 0 270 125" style="enable-background:new 0 0 270 125;" xml:space="preserve">
<style type="text/css">
	.st0{fill:#FFFFFF;}
	.st1{opacity:0.6;}
	.st2{fill:#007DFF;}
</style>
<path class="st0" d="M1.7,41.7L4.5,39l2.8,2.8l-2.8,2.8L1.7,41.7z M6.8,36.5l2.8-2.8l2.8,2.8l-2.8,2.8L6.8,36.5z M6.9,46.9l2.8-2.8
	l2.8,2.8l-2.8,2.8L6.9,46.9z M12,41.7l2.8-2.8l2.8,2.8l-2.8,2.8L12,41.7z M12,31.3l2.8-2.8l2.8,2.8L14.8,34L12,31.3z M17.3,26
	l2.8-2.8l2.8,2.8L20,28.8L17.3,26z M17.2,36.5l2.8-2.8l2.8,2.8L20,39.2L17.2,36.5z M22.4,31.3l2.8-2.8l2.8,2.8L25.2,34L22.4,31.3z
	 M22.5,20.8l2.8-2.8l2.8,2.8l-2.8,2.8L22.5,20.8z M27.7,15.6l2.8-2.8l2.8,2.8l-2.8,2.8L27.7,15.6z M27.7,26l2.8-2.8l2.8,2.8
	l-2.8,2.8L27.7,26z M32.9,20.8l2.8-2.8l2.8,2.8l-2.8,2.8L32.9,20.8z M33,10.4l2.8-2.8l2.8,2.8l-2.8,2.8L33,10.4z M38.2,5.2L41,2.5
	l2.8,2.8L41,8L38.2,5.2z M38.2,15.6l2.8-2.8l2.8,2.8L41,18.4L38.2,15.6z M43.4,10.4l2.8-2.8l2.8,2.8l-2.8,2.8L43.4,10.4z M43.4,20.8
	l2.8-2.8l2.8,2.8l-2.8,2.8L43.4,20.8z M48.6,15.6l2.8-2.8l2.8,2.8l-2.8,2.8L48.6,15.6z M48.6,26l2.8-2.8l2.8,2.8l-2.8,2.8L48.6,26z
	 M53.8,20.8l2.8-2.8l2.8,2.8l-2.8,2.8L53.8,20.8z M53.8,31.2l2.8-2.8l2.8,2.8L56.6,34L53.8,31.2z M59,26l2.8-2.8l2.8,2.8l-2.8,2.8
	L59,26z M58.9,36.5l2.8-2.8l2.8,2.8l-2.8,2.8L58.9,36.5z M64.2,31.2l2.8-2.8l2.8,2.8L67,34L64.2,31.2z M64.1,41.7l2.8-2.8l2.8,2.8
	l-2.8,2.8L64.1,41.7z M69.4,36.4l2.8-2.8l2.8,2.8l-2.8,2.8L69.4,36.4z M69.3,46.9l2.8-2.8l2.8,2.8l-2.8,2.8L69.3,46.9z M74.6,41.6
	l2.8-2.8l2.8,2.8l-2.8,2.8L74.6,41.6z M1.6,62.5l7.9-7.9l7.9,7.9l-7.9,7.9L1.6,62.5z M12,52.1l7.9-7.9l7.9,7.9L20,60L12,52.1z
	 M64.2,62.5l7.9-7.9l7.9,7.9l-7.9,7.9L64.2,62.5z M53.8,52.1l7.9-7.9l7.9,7.9L61.7,60L53.8,52.1z M22.4,41.7l7.9-7.9l7.9,7.9
	l-7.9,7.9L22.4,41.7z M43.3,41.6l7.9-7.9l7.9,7.9l-7.9,7.9L43.3,41.6z M32.9,31.2l7.9-7.9l7.9,7.9l-7.9,7.9L32.9,31.2z M1.6,83.4
	L20,65l18.3,18.3l-18.4,18.4L1.6,83.4z M22.3,104.2l18.4-18.4L59,104.2l-18.4,18.4L22.3,104.2z M22.4,62.5l18.4-18.4l18.3,18.3
	L40.8,80.8L22.4,62.5z M43.4,83.4L61.7,65L80,83.3l-18.4,18.4L43.4,83.4z"/>
<g>
	<g>
		<g class="st1">
			<g>
				
					<rect x="2.5" y="39.8" transform="matrix(0.7071 -0.7071 0.7071 0.7071 -28.1971 15.3841)" class="st2" width="3.9" height="3.9"/>
				
					<rect x="7.6" y="34.5" transform="matrix(0.7071 -0.7071 0.7071 0.7071 -22.9869 17.4408)" class="st2" width="3.9" height="3.9"/>
				
					<rect x="7.7" y="45" transform="matrix(0.7071 -0.7071 0.7071 0.7071 -30.3517 20.5821)" class="st2" width="3.9" height="3.9"/>
				
					<rect x="12.8" y="39.7" transform="matrix(0.7071 -0.7071 0.7071 0.7071 -25.1416 22.6389)" class="st2" width="3.9" height="3.9"/>
				
					<rect x="12.8" y="29.3" transform="matrix(0.7071 -0.7071 0.7071 0.7071 -17.7939 19.5976)" class="st2" width="3.9" height="3.9"/>
				
					<rect x="18.1" y="24.1" transform="matrix(0.7071 -0.7071 0.7071 0.7071 -12.5302 21.7837)" class="st2" width="3.9" height="3.9"/>
				
					<rect x="18" y="34.5" transform="matrix(0.7071 -0.7071 0.7071 0.7071 -19.9485 24.7957)" class="st2" width="3.9" height="3.9"/>
				
					<rect x="23.2" y="29.3" transform="matrix(0.7071 -0.7071 0.7071 0.7071 -14.7556 26.9526)" class="st2" width="3.9" height="3.9"/>
				
					<rect x="23.3" y="18.9" transform="matrix(0.7071 -0.7071 0.7071 0.7071 -7.3372 23.9405)" class="st2" width="3.9" height="3.9"/>
				
					<rect x="28.5" y="13.7" transform="matrix(0.7071 -0.7071 0.7071 0.7071 -2.1442 26.0972)" class="st2" width="3.9" height="3.9"/>
				
					<rect x="28.5" y="24.1" transform="matrix(0.7071 -0.7071 0.7071 0.7071 -9.4918 29.1385)" class="st2" width="3.9" height="3.9"/>
				
					<rect x="33.7" y="18.9" transform="matrix(0.7071 -0.7071 0.7071 0.7071 -4.2988 31.2953)" class="st2" width="3.9" height="3.9"/>
				
					<rect x="12.9" y="50.2" transform="matrix(0.7071 -0.7071 0.7071 0.7071 -32.5064 25.7802)" class="st2" width="3.9" height="3.9"/>
				
					<rect x="18" y="44.9" transform="matrix(0.7071 -0.7071 0.7071 0.7071 -27.2963 27.837)" class="st2" width="3.9" height="3.9"/>
				
					<rect x="18.1" y="55.4" transform="matrix(0.7071 -0.7071 0.7071 0.7071 -34.6611 30.9785)" class="st2" width="3.9" height="3.9"/>
				
					<rect x="23.3" y="50.2" transform="matrix(0.7071 -0.7071 0.7071 0.7071 -29.4682 33.1351)" class="st2" width="3.9" height="3.9"/>
				
					<rect x="23.2" y="39.7" transform="matrix(0.7071 -0.7071 0.7071 0.7071 -22.1033 29.9937)" class="st2" width="3.9" height="3.9"/>
				
					<rect x="28.4" y="34.5" transform="matrix(0.7071 -0.7071 0.7071 0.7071 -16.9102 32.1505)" class="st2" width="3.9" height="3.9"/>
				
					<rect x="28.4" y="44.9" transform="matrix(0.7071 -0.7071 0.7071 0.7071 -24.258 35.1918)" class="st2" width="3.9" height="3.9"/>
				
					<rect x="33.6" y="39.7" transform="matrix(0.7071 -0.7071 0.7071 0.7071 -19.0649 37.3487)" class="st2" width="3.9" height="3.9"/>
				
					<rect x="33.7" y="29.3" transform="matrix(0.7071 -0.7071 0.7071 0.7071 -11.6464 34.3366)" class="st2" width="3.9" height="3.9"/>
				
					<rect x="38.9" y="24.1" transform="matrix(0.7071 -0.7071 0.7071 0.7071 -6.4535 36.5519)" class="st2" width="3.9" height="3.9"/>
				
					<rect x="38.9" y="34.5" transform="matrix(0.7071 -0.7071 0.7071 0.7071 -13.8011 39.5346)" class="st2" width="3.9" height="3.9"/>
				
					<rect x="44.1" y="29.3" transform="matrix(0.7071 -0.7071 0.7071 0.7071 -8.6082 41.7499)" class="st2" width="3.9" height="3.9"/>
				
					<rect x="23.3" y="60.6" transform="matrix(0.7071 -0.7071 0.7071 0.7071 -36.8157 36.1763)" class="st2" width="3.9" height="3.9"/>
				
					<rect x="28.5" y="55.4" transform="matrix(0.7071 -0.7071 0.7071 0.7071 -31.6227 38.3331)" class="st2" width="3.9" height="3.9"/>
				
					<rect x="28.5" y="65.8" transform="matrix(0.7071 -0.7071 0.7071 0.7071 -38.9704 41.3745)" class="st2" width="3.9" height="3.9"/>
				
					<rect x="33.7" y="60.6" transform="matrix(0.7071 -0.7071 0.7071 0.7071 -33.7774 43.5312)" class="st2" width="3.9" height="3.9"/>
				
					<rect x="33.6" y="50.1" transform="matrix(0.7071 -0.7071 0.7071 0.7071 -26.4126 40.3898)" class="st2" width="3.9" height="3.9"/>
				
					<rect x="38.8" y="44.9" transform="matrix(0.7071 -0.7071 0.7071 0.7071 -21.2196 42.5466)" class="st2" width="3.9" height="3.9"/>
				
					<rect x="38.8" y="55.3" transform="matrix(0.7071 -0.7071 0.7071 0.7071 -28.5672 45.5879)" class="st2" width="3.9" height="3.9"/>
				
					<rect x="44" y="50.1" transform="matrix(0.7071 -0.7071 0.7071 0.7071 -23.3742 47.7447)" class="st2" width="3.9" height="3.9"/>
				
					<rect x="44.1" y="39.7" transform="matrix(0.7071 -0.7071 0.7071 0.7071 -15.9558 44.7327)" class="st2" width="3.9" height="3.9"/>
				
					<rect x="49.3" y="34.5" transform="matrix(0.7071 -0.7071 0.7071 0.7071 -10.7628 46.948)" class="st2" width="3.9" height="3.9"/>
				
					<rect x="49.3" y="44.9" transform="matrix(0.7071 -0.7071 0.7071 0.7071 -18.1105 49.9893)" class="st2" width="3.9" height="3.9"/>
				
					<rect x="54.5" y="39.7" transform="matrix(0.7071 -0.7071 0.7071 0.7071 -12.9175 52.1461)" class="st2" width="3.9" height="3.9"/>
				
					<rect x="33.7" y="71" transform="matrix(0.7071 -0.7071 0.7071 0.7071 -41.1251 46.5725)" class="st2" width="3.9" height="3.9"/>
				
					<rect x="38.9" y="65.8" transform="matrix(0.7071 -0.7071 0.7071 0.7071 -35.9321 48.7292)" class="st2" width="3.9" height="3.9"/>
				
					<rect x="38.9" y="76.2" transform="matrix(0.7071 -0.7071 0.7071 0.7071 -43.2798 51.7707)" class="st2" width="3.9" height="3.9"/>
				
					<rect x="44.1" y="71" transform="matrix(0.7071 -0.7071 0.7071 0.7071 -38.0868 53.9273)" class="st2" width="3.9" height="3.9"/>
				
					<rect x="44" y="60.5" transform="matrix(0.7071 -0.7071 0.7071 0.7071 -30.7218 50.786)" class="st2" width="3.9" height="3.9"/>
				
					<rect x="49.2" y="55.3" transform="matrix(0.7071 -0.7071 0.7071 0.7071 -25.5289 52.9429)" class="st2" width="3.9" height="3.9"/>
				
					<rect x="49.3" y="65.8" transform="matrix(0.7071 -0.7071 0.7071 0.7071 -32.8937 56.0841)" class="st2" width="3.9" height="3.9"/>
				
					<rect x="54.4" y="60.5" transform="matrix(0.7071 -0.7071 0.7071 0.7071 -27.6836 58.141)" class="st2" width="3.9" height="3.9"/>
				
					<rect x="54.5" y="50.1" transform="matrix(0.7071 -0.7071 0.7071 0.7071 -20.2651 55.1873)" class="st2" width="3.9" height="3.9"/>
				
					<rect x="59.7" y="44.9" transform="matrix(0.7071 -0.7071 0.7071 0.7071 -15.0721 57.3441)" class="st2" width="3.9" height="3.9"/>
				
					<rect x="59.7" y="55.3" transform="matrix(0.7071 -0.7071 0.7071 0.7071 -22.4198 60.3855)" class="st2" width="3.9" height="3.9"/>
				
					<rect x="64.9" y="50.1" transform="matrix(0.7071 -0.7071 0.7071 0.7071 -17.2268 62.5423)" class="st2" width="3.9" height="3.9"/>
				
					<rect x="33.8" y="8.5" transform="matrix(0.7071 -0.7071 0.7071 0.7071 3.1196 28.3418)" class="st2" width="3.9" height="3.9"/>
				<rect x="39" y="3.3" transform="matrix(0.7071 -0.7071 0.7071 0.7071 8.3127 30.4986)" class="st2" width="3.9" height="3.9"/>
				<rect x="39" y="13.7" transform="matrix(0.7071 -0.7071 0.7071 0.7071 0.965 33.5398)" class="st2" width="3.9" height="3.9"/>
				
					<rect x="44.2" y="8.5" transform="matrix(0.7071 -0.7071 0.7071 0.7071 6.1579 35.6967)" class="st2" width="3.9" height="3.9"/>
				
					<rect x="44.2" y="18.9" transform="matrix(0.7071 -0.7071 0.7071 0.7071 -1.1897 38.738)" class="st2" width="3.9" height="3.9"/>
				
					<rect x="49.4" y="13.7" transform="matrix(0.7071 -0.7071 0.7071 0.7071 4.0033 40.8947)" class="st2" width="3.9" height="3.9"/>
				
					<rect x="49.4" y="24.1" transform="matrix(0.7071 -0.7071 0.7071 0.7071 -3.3444 43.9361)" class="st2" width="3.9" height="3.9"/>
				
					<rect x="54.6" y="18.9" transform="matrix(0.7071 -0.7071 0.7071 0.7071 1.8486 46.0927)" class="st2" width="3.9" height="3.9"/>
				
					<rect x="54.6" y="29.3" transform="matrix(0.7071 -0.7071 0.7071 0.7071 -5.499 49.1341)" class="st2" width="3.9" height="3.9"/>
				
					<rect x="59.8" y="24.1" transform="matrix(0.7071 -0.7071 0.7071 0.7071 -0.3061 51.2908)" class="st2" width="3.9" height="3.9"/>
				
					<rect x="59.7" y="34.5" transform="matrix(0.7071 -0.7071 0.7071 0.7071 -7.7245 54.3029)" class="st2" width="3.9" height="3.9"/>
				
					<rect x="65" y="29.3" transform="matrix(0.7071 -0.7071 0.7071 0.7071 -2.4607 56.4889)" class="st2" width="3.9" height="3.9"/>
				
					<rect x="64.9" y="39.7" transform="matrix(0.7071 -0.7071 0.7071 0.7071 -9.879 59.5009)" class="st2" width="3.9" height="3.9"/>
				
					<rect x="70.2" y="34.5" transform="matrix(0.7071 -0.7071 0.7071 0.7071 -4.6153 61.6869)" class="st2" width="3.9" height="3.9"/>
				
					<rect x="70.1" y="44.9" transform="matrix(0.7071 -0.7071 0.7071 0.7071 -12.0338 64.6992)" class="st2" width="3.9" height="3.9"/>
				<rect x="75.4" y="39.7" transform="matrix(0.7071 -0.7071 0.7071 0.7071 -6.77 66.885)" class="st2" width="3.9" height="3.9"/>
			</g>
		</g>
		<g class="st1">
			
				<rect x="3.9" y="56.9" transform="matrix(0.7071 -0.7071 0.7071 0.7071 -41.4369 25.029)" class="st2" width="11.2" height="11.2"/>
			
				<rect x="14.3" y="67.3" transform="matrix(0.7071 -0.7071 0.7071 0.7071 -45.7462 35.425)" class="st2" width="11.2" height="11.2"/>
			
				<rect x="24.8" y="56.9" transform="matrix(0.7071 -0.7071 0.7071 0.7071 -35.2893 39.7679)" class="st2" width="11.2" height="11.2"/>
			
				<rect x="14.4" y="46.5" transform="matrix(0.7071 -0.7071 0.7071 0.7071 -30.9801 29.3717)" class="st2" width="11.2" height="11.2"/>
			
				<rect x="24.7" y="77.7" transform="matrix(0.7071 -0.7071 0.7071 0.7071 -50.0555 45.8212)" class="st2" width="11.2" height="11.2"/>
			
				<rect x="35.1" y="88.1" transform="matrix(0.7071 -0.7071 0.7071 0.7071 -54.3648 56.2173)" class="st2" width="11.2" height="11.2"/>
			
				<rect x="45.6" y="77.8" transform="matrix(0.7071 -0.7071 0.7071 0.7071 -43.9374 60.6309)" class="st2" width="11.2" height="11.2"/>
			
				<rect x="35.2" y="67.3" transform="matrix(0.7071 -0.7071 0.7071 0.7071 -39.5988 50.164)" class="st2" width="11.2" height="11.2"/>
			
				<rect x="45.7" y="56.9" transform="matrix(0.7071 -0.7071 0.7071 0.7071 -29.142 54.5654)" class="st2" width="11.2" height="11.2"/>
			
				<rect x="56" y="67.3" transform="matrix(0.7071 -0.7071 0.7071 0.7071 -33.522 64.9322)" class="st2" width="11.2" height="11.2"/>
			
				<rect x="66.5" y="56.9" transform="matrix(0.7071 -0.7071 0.7071 0.7071 -23.0652 69.275)" class="st2" width="11.2" height="11.2"/>
			
				<rect x="56.1" y="46.5" transform="matrix(0.7071 -0.7071 0.7071 0.7071 -18.7559 58.8789)" class="st2" width="11.2" height="11.2"/>
			
				<rect x="24.8" y="36.1" transform="matrix(0.7071 -0.7071 0.7071 0.7071 -20.594 33.6852)" class="st2" width="11.2" height="11.2"/>
			
				<rect x="35.3" y="46.5" transform="matrix(0.7071 -0.7071 0.7071 0.7071 -24.8327 44.1693)" class="st2" width="11.2" height="11.2"/>
			
				<rect x="45.6" y="36" transform="matrix(0.7071 -0.7071 0.7071 0.7071 -14.4294 48.3827)" class="st2" width="11.2" height="11.2"/>
			
				<rect x="35.2" y="25.6" transform="matrix(0.7071 -0.7071 0.7071 0.7071 -10.1201 37.9866)" class="st2" width="11.2" height="11.2"/>
		</g>
		<g class="st1">
			<rect x="7" y="70.4" transform="matrix(0.7071 -0.7071 0.7071 0.7071 -53.0686 38.5246)" class="st2" width="26" height="25.9"/>
			
				<rect x="27.7" y="91.2" transform="matrix(0.7071 -0.7071 0.7071 0.7071 -61.758 59.2875)" class="st2" width="26" height="25.9"/>
			
				<rect x="27.8" y="49.5" transform="matrix(0.7071 -0.7071 0.7071 0.7071 -32.2086 47.1395)" class="st2" width="26" height="25.9"/>
			
				<rect x="48.7" y="70.4" transform="matrix(0.7071 -0.7071 0.7071 0.7071 -40.8444 68.0317)" class="st2" width="26" height="25.9"/>
		</g>
	</g>
	<g>
		<path class="st2" d="M183.2,52.5L183.2,52.5 M126.5,52.7L126.5,52.7 M261.9,77.3l6.4-4.4c-3.9-5-9.8-7.4-15.9-7.4
			c-7.8,0-13.7,5.1-13.6,12c0,6.1,3.8,10.1,10.8,12.2l3.6,1.1c3.7,1.1,6.5,2.4,6.4,4.9c-0.1,2.6-3.3,4.3-6.6,4.3
			c-3.2,0-6.4-1.6-8.8-4.2l-6.5,4.8c3.8,4.5,9.1,7.1,15.3,7.1c8.1,0,15.6-5,15.6-12.2c0-6.1-4.9-10.1-11.8-11.9l-4-1.1
			c-3.4-0.9-4.8-2.4-4.9-4.8c0-2.6,2.1-4.2,5.3-4.2C255.6,73.4,259.1,74.5,261.9,77.3z M222,107h8.9V65l-16.4,17.3
			c-0.9,0.8-2.3,2.1-3.2,2.9c-0.8-0.7-2.1-2-3.2-2.9L191.7,65v42h8.9V86.5c0-1.1-0.1-1.1-0.2-1.7l10.9,10.7L222,84.9
			c-0.1,0.5-0.2,0.4-0.2,1.4V107H222z M163.8,90.3h18.9v-7.5h-18.9v-8.4h19.5v-8.2h-28.4V107h28.5v-8.2h-19.5v-8.5H163.8z
			 M138.5,77.7l6-5.5c-5.7-4.6-11.6-6.6-17.3-6.6c-13.3,0-23.1,9-23.1,21s9.8,21,23.1,21c6.8,0,14.1-3.1,19.4-8.4l-0.1-16.4h-21.7
			l-0.1,7.4h12.8v6.2c-3.4,2.4-6.8,3.2-10.4,3.2c-8.1,0-13.9-5.7-13.9-13.1c0-7.3,5.9-13,13.9-13C131.2,73.5,134.9,74.9,138.5,77.7"
			/>
		<path class="st2" d="M252.5,57.6v-4.1c-8.8,1-12.2-1.9-12.2-10.6V28.6h12.2v-3.9h-12.2v-8l-4.5,2v6h-4.9v3.9h4.9v14.3
			C235.6,54.8,241.1,58.8,252.5,57.6 M198.5,58l13.1-14.2L224.7,58l3.5-2.5L214.6,41l13.8-14.4l-3.7-2.5l-13.1,14L198.4,24l-3.6,2.5
			l13.7,14.4l-13.7,14.6L198.5,58z M161.2,39c0.4-6.4,5.7-10.9,12.9-10.9c7.4,0,12.6,4.4,13,10.9H161.2z M174.4,57.9
			c6.1,0,11.4-2.1,15.8-7.1l-3.6-2.3c-3.8,4.3-7.9,5.4-12.1,5.4c-7.2,0-12.9-4.7-13.2-11.2h30.4c0.7-10.8-6.8-18.7-17.5-18.7
			c-10.3,0-17.6,7.3-17.6,16.8C156.5,50.6,163.7,57.9,174.4,57.9 M144.6,57.4h4.6v-17c0-10.4-4-16.2-13.7-16.2
			c-6.2,0-10.4,3.4-12.4,7.4v-7h-4.6v32.8h4.6V40.9c0-7.3,4-12.7,11.4-12.7c7.3,0,10.1,4.3,10.1,12.4L144.6,57.4L144.6,57.4z"/>
	</g>
</g>
</svg>
